<svg id="Layer_1" enable-background="new 0 0 25 25" height="25px" viewBox="200 200 25 25" width="25px" xmlns="http://www.w3.org/2000/svg">
    <g><path d="m438 504.5h-364c-4.418 0-8-3.582-8-8v-481c0-4.418 3.582-8 8-8h364c4.418 0 8 3.582 8 8v481c0 4.418-3.582 8-8 8z" fill="#f3f3f3"/><path d="m438 7.5h-30c4.418 0 8 3.582 8 8v481c0 4.418-3.582 8-8 8h30c4.418 0 8-3.582 8-8v-481c0-4.418-3.582-8-8-8z" fill="#e4e4e4"/>
        <path d="m446 69.5h-380v-54c0-4.418 3.582-8 8-8h364c4.418 0 8 3.582 8 8z" fill="#f75632"/>
        <path d="m438 7.5h-30c4.418 0 8 3.582 8 8v54h30v-54c0-4.418-3.582-8-8-8z" fill="#e33629"/>
        <path d="m316.835 200.236c0 45.89-27.237 65.947-60.835 65.947s-60.835-20.057-60.835-65.947 44.984-100.236 60.835-100.236 60.835 54.346 60.835 100.236z" fill="#f75632"/>
        <path d="m256 100c-3.717 0-9.035 2.988-15 8.155 19.473 16.867 45.835 56.951 45.835 92.081 0 38.819-19.491 59.149-45.835 64.493 4.799.974 9.823 1.454 15 1.454 33.598 0 60.835-20.057 60.835-65.947s-44.984-100.236-60.835-100.236z" fill="#e33629"/>
        <path d="m66 301h380v167h-380z" fill="#ffd54f"/><path d="m416 301h30v167h-30z" fill="#ffc328"/>
        <g>
            <path d="m438 0h-53.996c-4.143 0-7.5 3.358-7.5 7.5s3.357 7.5 7.5 7.5h53.996c.275 0 .5.224.5.5v46.5h-365v-46.5c0-.276.225-.5.5-.5h277.911c4.143 0 7.5-3.358 7.5-7.5s-3.357-7.5-7.5-7.5h-277.911c-8.547 0-15.5 6.953-15.5 15.5v78.88c0 4.142 3.357 7.5 7.5 7.5s7.5-3.358 7.5-7.5v-17.38h365v216.5h-365v-165.26c0-4.142-3.357-7.5-7.5-7.5s-7.5 3.358-7.5 7.5v368.26c0 8.547 6.953 15.5 15.5 15.5h364c8.547 0 15.5-6.953 15.5-15.5v-481c0-8.547-6.953-15.5-15.5-15.5zm0 497h-364c-.275 0-.5-.224-.5-.5v-21h310.179c4.143 0 7.5-3.358 7.5-7.5s-3.357-7.5-7.5-7.5h-310.179v-152h365v152h-22.264c-4.143 0-7.5 3.358-7.5 7.5s3.357 7.5 7.5 7.5h22.264v21c0 .276-.225.5-.5.5z"/>
            <path d="m304.257 255.784c13.135-12.827 20.078-32.035 20.078-55.548 0-21.542-9.398-47.626-25.784-71.563-11.971-17.487-29.436-36.173-42.551-36.173s-30.58 18.686-42.551 36.172c-16.386 23.938-25.784 50.021-25.784 71.563 0 23.513 6.943 42.721 20.078 55.548 11.991 11.709 28.678 17.898 48.257 17.898s36.266-6.188 48.257-17.897zm-101.592-55.548c0-18.47 8.354-41.338 22.923-62.739 14.046-20.635 26.944-29.85 30.399-29.997 3.48.147 16.379 9.361 30.425 29.997 14.568 21.401 22.923 44.269 22.923 62.739 0 37.144-19.439 58.447-53.335 58.447s-53.335-21.304-53.335-58.447z"/>
            <path d="m385.305 323.669h-121.521c-4.143 0-7.5 3.358-7.5 7.5s3.357 7.5 7.5 7.5h121.521c4.143 0 7.5-3.358 7.5-7.5s-3.358-7.5-7.5-7.5z"/>
            <path d="m385.305 359.517h-121.521c-4.143 0-7.5 3.358-7.5 7.5s3.357 7.5 7.5 7.5h121.521c4.143 0 7.5-3.358 7.5-7.5s-3.358-7.5-7.5-7.5z"/>
            <path d="m385.305 395.364h-121.521c-4.143 0-7.5 3.358-7.5 7.5s3.357 7.5 7.5 7.5h121.521c4.143 0 7.5-3.358 7.5-7.5s-3.358-7.5-7.5-7.5z"/>
            <path d="m336.449 431.212h-72.665c-4.143 0-7.5 3.358-7.5 7.5s3.357 7.5 7.5 7.5h72.665c4.143 0 7.5-3.358 7.5-7.5s-3.357-7.5-7.5-7.5z"/>
            <path d="m181.297 326.897c-.025-.069-.053-.137-.08-.205-1.562-3.796-5.222-6.248-9.326-6.248h-.01c-4.107.004-7.768 2.463-9.323 6.266-.023.057-.046.113-.067.17l-42.804 112.387c-1.475 3.871.469 8.204 4.34 9.678.878.335 1.78.493 2.668.493 3.021 0 5.87-1.84 7.01-4.833l8.821-23.16h58.422l8.732 23.138c1.462 3.875 5.79 5.833 9.665 4.369 3.875-1.463 5.831-5.79 4.368-9.665zm-33.059 79.55 23.632-62.048 23.417 62.048z"/>
        </g>
    </g>
</svg>